<?xml version="1.0" encoding="UTF-8" standalone="no"?>
<!DOCTYPE svg PUBLIC "-//W3C//DTD SVG 1.1//EN" "http://www.w3.org/Graphics/SVG/1.1/DTD/svg11.dtd">
<svg xmlns="http://www.w3.org/2000/svg" xmlns:xlink="http://www.w3.org/1999/xlink" version="1.1" width="400pt" height="400pt" viewBox="0 0 800 800">
<g enable-background="new">
<g id="Layer-1" data-name="Layer">
<clipPath id="cp0">
<path transform="matrix(1,0,0,-1,0,800)" d="M 0 800 L 800 800 L 800 0 L 0 0 Z "/>
</clipPath>
<g clip-path="url(#cp0)">
<path transform="matrix(1,0,0,-1,513.8506,547.1934)" d="M 0 0 C 4.852 -.268 9.917 1.247 14.62 -.146 C 18.118 -3.551 20.704 -7.825 24.001 -11.457 C 25.77 -7.651 27.605 -3.886 29.415 -.106 C 34.467 .081 39.519 .081 44.584 .027 C 39.438 -13.4 32.108 -25.917 26.734 -39.277 C 21.91 -41.596 16.255 -37.683 11.753 -40.738 C 9.983 -34.104 18.467 -29.213 17.18 -22.634 C 11.618 -14.968 5.4 -7.785 0 0 M -43.659 -.146 C -31.692 1.273 -19.659 -.214 -7.665 .027 L -5.869 -.16 C -6.78 -4.623 -6.928 -9.166 -6.874 -13.708 C -10.962 -13.655 -15.035 -13.682 -19.109 -13.789 C -19.189 -22.379 -19.229 -30.982 -19.271 -39.585 C -21.32 -39.572 -23.371 -39.559 -25.421 -39.545 L -26.439 -40.269 C -28.919 -40.148 -31.572 -40.443 -33.81 -39.144 C -33.046 -30.66 -32.563 -22.164 -32.322 -13.655 C -36.155 -13.682 -39.987 -13.722 -43.807 -13.829 C -44.464 -10.921 -44.477 -7.933 -43.82 -5.038 C -44.008 -3.832 -44.383 -1.434 -44.584 -.241 L -43.659 -.146 M -71.882 .027 C -67.205 -.013 -62.515 -.013 -57.838 -.013 C -57.892 -13.186 -57.932 -26.372 -57.958 -39.545 C -62.796 -39.599 -67.646 -39.666 -72.471 -39.385 C -72.243 -26.238 -72.444 -13.105 -71.882 .027 M -122.777 0 C -118.824 .054 -114.844 .229 -110.918 -.469 C -107.581 -7.115 -102.877 -12.944 -99.232 -19.431 C -98.696 -19.404 -97.624 -19.351 -97.088 -19.323 C -97.249 -12.878 -97.102 -6.432 -97.088 .014 C -93.322 .041 -89.57 .041 -85.805 -.013 C -85.886 -13.105 -85.631 -26.185 -85.162 -39.264 C -89.289 -39.652 -93.497 -39.934 -97.57 -39.022 C -100.68 -33.528 -104.606 -28.529 -108.332 -23.464 L -110.221 -22.446 C -110.248 -28.154 -110.262 -33.863 -110.302 -39.572 C -114.75 -39.599 -119.186 -39.599 -123.608 -39.491 C -123.273 -26.318 -123.488 -13.146 -122.777 0 M -151.348 -.911 C -147.127 1.22 -141.512 -.576 -136.768 -.053 C -136.875 -13.199 -136.969 -26.358 -136.956 -39.519 C -141.874 -39.599 -146.778 -39.639 -151.696 -39.425 C -151.402 -26.587 -151.844 -13.735 -151.348 -.911 M -193.547 0 C -183.711 .027 -173.875 .054 -164.039 -.026 C -164.039 -3.604 -164.039 -7.183 -164.092 -10.761 C -169.774 -10.707 -175.442 -10.693 -181.111 -10.948 C -181.084 -12.288 -181.017 -14.995 -180.99 -16.349 C -177.935 -16.402 -174.88 -16.456 -171.824 -16.51 C -171.824 -19.068 -171.838 -21.642 -171.851 -24.215 C -174.746 -24.161 -177.627 -24.135 -180.508 -24.094 C -180.455 -29.213 -180.401 -34.332 -180.24 -39.465 C -184.984 -40.027 -189.741 -39.612 -194.472 -39.344 C -193.909 -26.238 -193.413 -13.132 -193.547 0 M -244.282 0 C -240.503 -.228 -236.362 .684 -232.798 -.535 C -227.987 -7.263 -224.248 -14.714 -219.209 -21.293 C -218.861 -14.204 -219.008 -7.102 -218.928 -.013 C -214.961 .081 -210.981 .067 -207.015 -.2 C -207.095 -13.307 -206.988 -26.399 -206.867 -39.491 C -210.767 -39.599 -214.68 -39.585 -218.58 -39.465 C -222.653 -33.233 -227.183 -27.323 -231.176 -21.052 C -231.538 -27.217 -231.846 -33.395 -231.766 -39.585 C -235.987 -39.559 -240.208 -39.545 -244.43 -39.639 C -244.631 -38.728 -245.019 -36.892 -245.207 -35.98 C -243.8 -24.081 -244.738 -11.979 -244.282 0 M -272.638 -.12 C -267.733 .041 -262.815 .067 -257.911 -.2 C -258.018 -13.227 -258.072 -26.252 -257.991 -39.277 C -262.923 -39.706 -267.881 -39.585 -272.826 -39.545 C -272.719 -26.399 -272.598 -13.253 -272.638 -.12 M -80.284 150.531 C -79.507 153.05 -77.215 154.203 -74.669 153.761 C -69.309 146.631 -68.438 137.532 -67.888 128.929 C -68.411 122.591 -68.571 115.863 -72.123 110.315 C -73.812 110.557 -75.861 110.437 -76.478 112.419 C -82.87 123.783 -85.121 138.189 -80.284 150.531 M -53.885 205.582 C -26.439 210.66 1.313 214.037 28.919 218.232 C 32.148 207.565 30.956 196.134 32.256 185.145 C 33.341 177.199 32.551 169.145 33.516 161.185 C 34.788 152.059 34.158 142.799 34.909 133.633 C 36.075 125.887 35.418 118.008 36.437 110.262 C 37.522 101.806 36.49 93.203 37.924 84.787 C 38.165 68.022 40.912 51.339 39.801 34.574 C 37.79 34.48 35.794 34.521 33.811 34.708 C 14.245 37.991 -5.333 41.208 -24.737 45.322 C -27.552 45.764 -29.079 48.351 -29.334 51.004 C -32.041 67.875 -35.699 84.586 -38.916 101.364 C -39.532 104.888 -39.867 108.788 -37.71 111.87 C -27.324 129.935 -22.419 152.273 -28.879 172.508 C -35.847 172.415 -42.722 173.513 -49.649 173.996 C -51.995 184.368 -53.509 194.968 -53.885 205.582 M -164.199 167.282 C -143.576 183.591 -123.608 200.73 -102.984 216.999 C -88.003 202.673 -71.988 189.232 -59.178 172.816 C -66.454 165.084 -75.366 159.175 -83.406 152.3 C -93.242 144.246 -102.649 135.67 -112.78 127.978 C -115.152 126.731 -114.992 123.757 -114.054 121.626 C -109.136 109.364 -99.326 99.581 -88.069 92.975 C -79.842 88.017 -69.241 87.963 -60.639 92.05 C -56.913 93.524 -53.59 96.714 -49.314 96.11 C -46.354 83.192 -42.507 70.475 -39.733 57.503 C -38.942 55.306 -41.596 54.126 -42.923 52.934 C -56.096 43.834 -68.759 33.984 -82.187 25.247 C -85.229 22.916 -89.718 22.942 -92.733 25.314 C -108.104 35.673 -123.327 46.3 -137.867 57.812 C -145.854 64.002 -153.412 70.757 -161.921 76.224 C -173.044 66.268 -183.55 55.653 -194.646 45.67 C -203.933 37.402 -213.327 29.241 -222.238 20.558 C -227.598 23.947 -231.739 28.825 -236.456 33.007 C -247.056 42.468 -257.08 52.571 -267.76 61.952 C -269.864 64.257 -274.863 67.326 -271.312 70.568 C -256.691 87.159 -241.374 103.133 -226.674 119.656 C -235.331 133.994 -244.671 147.905 -252.979 162.458 C -256.678 169.225 -261.623 175.336 -264.437 182.545 C -247.445 193.253 -230.426 203.96 -212.857 213.689 C -206.733 209.508 -202.606 203.169 -197.312 198.063 C -187.731 188.482 -178.887 178.19 -169.05 168.85 C -167.844 167.604 -165.968 165.969 -164.199 167.282 M 143.589 272.572 C 152.059 275.761 160.3 279.621 168.957 282.287 C 171.57 282.609 174.96 283.802 177.145 281.711 C 178.043 278.683 178.444 275.52 178.793 272.384 C 179.758 258.434 181.299 244.538 182.947 230.667 C 183.51 227.894 180.374 226.701 178.538 225.455 C 165.861 218.312 155.878 207.216 148.347 194.915 C 146.202 191.752 144.809 187.772 141.23 185.909 C 132.587 188.964 124.734 194.74 115.568 195.879 C 112.11 193.762 112.245 188.804 111.856 185.199 C 111.093 177.44 114.911 169.989 120.325 164.669 C 122.161 163.141 124.306 160.876 126.973 161.774 C 132.802 165.687 136.996 171.437 141.673 176.555 C 143.401 178.82 146.778 178.485 149.017 177.199 C 153.72 174.572 158.625 172.321 163.569 170.217 C 171.758 166.987 180.549 166.143 189.151 164.723 C 192.167 164.307 195.343 164.361 198.117 162.9 C 197.38 154.216 195.276 145.693 195.075 136.956 C 195.008 134.598 194.338 132.306 193.708 130.041 C 185.762 125.9 177.158 123.287 168.917 119.83 C 166.692 118.879 164.468 117.968 162.216 117.123 C 157.07 114.898 151.737 113.143 146.658 110.73 C 147.301 108.681 148.024 106.644 148.789 104.62 C 149.378 102.852 149.86 101.028 150.263 99.192 C 160.501 97.585 170.913 97.946 181.259 97.491 C 199.082 97.103 216.892 95.99 234.728 96.379 C 237.756 96.379 240.839 96.754 243.867 96.231 C 247.673 92.841 252.377 89.719 254.186 84.76 C 253.529 80.029 251.211 75.729 249.804 71.198 C 248.825 68.975 247.94 66.723 247.137 64.432 C 246.146 62.247 245.234 60.009 244.416 57.744 C 241.856 51.808 239.378 45.817 237.006 39.801 C 236.604 38.394 235.652 36.209 237.314 35.231 C 243.144 31.532 249.495 28.651 255.124 24.604 C 257.817 22.434 256.396 18.855 255.03 16.322 C 252.792 13.08 248.799 12.209 245.314 10.989 C 228.966 5.615 212.845 -.415 196.535 -5.869 C 192.556 -7.143 188.2 -8.764 184.153 -6.874 C 183.872 7.84 184.341 22.567 185.654 37.228 C 164.025 37.094 142.477 35.097 120.955 33.302 C 110.569 32.939 100.237 31.171 89.839 32.068 C 87.708 33.248 87.132 35.74 86.462 37.871 C 81.999 53.335 78.837 69.148 74.95 84.747 C 71.131 100.828 66.763 116.774 62.97 132.855 C 61.094 141.901 58.95 150.906 56.377 159.778 C 52.25 180.589 47.265 201.226 42.521 221.903 C 42.052 224.007 42.307 226.178 42.44 228.309 C 47.385 231.311 52.438 234.179 57.758 236.47 C 81.798 246.923 106.134 256.665 130.095 267.292 C 134.57 269.101 139.113 270.736 143.589 272.572 M -364.661 171.208 C -367.449 166.424 -369.017 161.037 -370.959 155.878 C -373.492 148.24 -376.762 140.843 -378.839 133.057 C -379.657 131.087 -379.013 129.09 -378.29 127.228 C -368.829 123.636 -359.113 120.353 -349.076 118.905 C -346.838 120.5 -344.533 122.001 -342.175 123.395 C -339.856 138.162 -341.652 153.064 -342.309 167.872 C -342.791 168.555 -343.756 169.949 -344.238 170.632 C -348.353 171.369 -352.333 172.643 -356.393 173.607 C -359.328 174.291 -362.959 174.13 -364.661 171.208 M -414.968 314.878 C -410.371 317.036 -405.534 319.716 -400.267 318.858 C -393.58 308.057 -384.548 298.931 -377.78 288.17 C -386.263 282.287 -392.99 273.483 -394.089 262.95 C -393.299 258.903 -392.213 254.602 -388.876 251.854 C -381.412 245.757 -372.072 242.608 -362.919 240.008 C -335.38 232.423 -307.145 227.652 -279.566 220.269 C -279.178 219.652 -278.387 218.433 -277.999 217.816 C -280.826 154.565 -282.233 91.26 -283.238 27.968 C -288.009 25.757 -293.45 27.03 -298.515 26.561 C -314.248 26.762 -329.899 24.229 -345.632 25.354 C -348.754 37.107 -351.301 49.021 -354.584 60.746 C -364.902 64.552 -375.194 68.425 -385.687 71.722 C -386.612 71.734 -387.536 71.748 -388.461 71.748 C -397.359 56.739 -405.252 41.127 -414.606 26.373 C -429.574 26.172 -444.543 26.521 -459.499 26.092 C -466.4 25.529 -474.722 23.652 -480.323 28.973 C -481.73 30.607 -485.348 31.907 -484.089 34.521 C -473.1 59.955 -461.428 85.082 -450.011 110.329 C -438.419 136.97 -426.948 163.664 -416.187 190.653 C -414.592 194.285 -413.896 198.533 -415.437 202.312 C -417.594 208.556 -422.847 212.952 -428.02 216.731 C -440.054 225.589 -452.758 233.603 -464.51 242.822 C -464.242 245.985 -462.353 248.651 -461.12 251.492 C -457.233 260.136 -453.615 268.927 -448.872 277.155 C -443.498 278.321 -440.442 273.161 -437.065 269.999 C -437.762 284.083 -432.925 298.395 -423.812 309.169 C -421.574 311.997 -418.077 313.27 -414.968 314.878 M -7.96 289.993 C -14.74 283.815 -21.2 277.262 -28.343 271.473 C -30.326 269.932 -32.148 267.841 -34.774 267.466 C -37.254 273.55 -37.039 280.277 -36.41 286.696 C -34.359 286.455 -32.403 285.785 -30.54 284.887 C -32.591 281.993 -38.272 278.83 -34.788 274.903 C -32.443 277.208 -30.125 279.54 -27.82 281.899 C -26.453 281.095 -25.072 280.277 -23.679 279.473 C -22.554 280.733 -20.771 281.925 -21.602 283.896 C -26.185 287.554 -31.264 290.676 -36.664 292.981 C -38.299 293.879 -40.135 293.477 -41.864 293.276 C -42.521 288.961 -43.472 284.592 -42.762 280.21 C -41.743 273.229 -42.333 265.737 -38.835 259.345 C -32.697 260.766 -28.838 266.126 -24.215 269.958 C -17.26 275.949 -11.363 283.172 -3.726 288.358 C -2.975 288.21 -1.487 287.929 -.75 287.795 C .522 281.899 2.063 275.533 -.603 269.758 C -4.409 270.548 -7.316 273.148 -10.386 275.333 C -12.436 277.061 -16.925 275.681 -14.848 272.464 C -9.26 268.404 -3.27 264.974 3.056 262.227 C 3.833 262.709 5.374 263.674 6.138 264.156 C 6.768 274.917 6.54 286.04 3.283 296.358 C -1.595 297.068 -4.717 292.82 -7.96 289.993 M -27.284 330.771 C -24.684 332.982 -21.401 336.601 -17.676 334.483 C -4.422 325.84 8.362 316.365 19.927 305.524 C 27.687 298.288 34.909 290.489 42.507 283.091 C 42.494 281.309 42.762 279.326 41.408 277.918 C 27.445 257.871 10.613 240.008 -7.29 223.458 C -9.086 221.823 -11.283 220.751 -13.4 219.625 C -15.92 220.563 -18.453 221.515 -20.678 223.042 C -31.599 230.346 -41.823 238.641 -51.888 247.083 C -60.651 254.789 -69.871 262.2 -76.974 271.567 C -80.444 275.171 -75.768 279.111 -73.865 282.193 C -59.861 299.735 -44.088 315.883 -27.284 330.771 " fill="#5BAD9D"/>
</g>
</g>
</g>
</svg>
